<?xml version="1.0" encoding="utf-8"?>
<!-- Generator: Adobe Illustrator 23.0.1, SVG Export Plug-In . SVG Version: 6.00 Build 0)  -->
<svg version="1.1" xmlns="http://www.w3.org/2000/svg" xmlns:xlink="http://www.w3.org/1999/xlink" x="0px" y="0px"
	 viewBox="0 0 48 48" style="enable-background:new 0 0 48 48;" xml:space="preserve">
<style type="text/css">
	.st0{fill:#DD1919;}
	.st1{fill:#6D6D6D;}
	.st2{fill:#DB8A1F;}
	.st3{fill:#FFB74D;}
	.st4{display:none;fill:#CC823A;}
	.st5{fill:#784719;}
	.st6{fill-rule:evenodd;clip-rule:evenodd;fill:#424242;}
	.st7{fill:#424242;}
	.st8{fill:#FFFFFF;}
	.st9{fill:#005C7C;}
	.st10{display:none;}
	.st11{display:inline;fill-rule:evenodd;clip-rule:evenodd;fill:#292F33;}
</style>
<g id="Layer_1">
	<g>
		<g>
			<path class="st0" d="M5.7,47.4c0-0.3-0.2-0.6-0.6-0.6H0V48h5.1C5.4,48,5.7,47.7,5.7,47.4z"/>
			<path class="st0" d="M44.5,39.9c0,0.3,0.2,0.6,0.6,0.6h3v-1.2h-3C44.7,39.3,44.5,39.6,44.5,39.9z"/>
			<path class="st0" d="M11.9,33.6c0-0.3-0.2-0.6-0.6-0.6H3.1c-0.3,0-0.6,0.3-0.6,0.6c0,0.3,0.2,0.6,0.6,0.6h8.3
				C11.7,34.2,11.9,33.9,11.9,33.6z"/>
			<path class="st0" d="M40.9,29.2h-8.3c-0.3,0-0.6,0.3-0.6,0.6c0,0.3,0.2,0.6,0.6,0.6h8.3c0.3,0,0.6-0.3,0.6-0.6
				C41.4,29.5,41.2,29.2,40.9,29.2z"/>
			<path class="st0" d="M10.7,15.3c0-0.3-0.2-0.6-0.6-0.6H1.8c-0.3,0-0.6,0.3-0.6,0.6c0,0.3,0.2,0.6,0.6,0.6h8.3
				C10.4,15.9,10.7,15.6,10.7,15.3z"/>
			<path class="st0" d="M39.6,14.6c-0.3,0-0.6,0.3-0.6,0.6c0,0.3,0.2,0.6,0.6,0.6h8.3c0,0,0.1,0,0.1,0v-1.2c0,0-0.1,0-0.1,0H39.6z"
				/>
			<path class="st0" d="M28.6,4.7h8.3c0.3,0,0.6-0.3,0.6-0.6c0-0.3-0.2-0.6-0.6-0.6h-8.3c-0.3,0-0.6,0.3-0.6,0.6
				C28,4.4,28.2,4.7,28.6,4.7z"/>
		</g>
		<g>
			<path class="st1" d="M18.3,35.6H10c-0.3,0-0.6,0.3-0.6,0.6c0,0.3,0.2,0.6,0.6,0.6h8.3c0.3,0,0.6-0.3,0.6-0.6
				C18.9,35.8,18.6,35.6,18.3,35.6z"/>
			<path class="st1" d="M2.3,39.9c0-0.3-0.2-0.6-0.6-0.6H0v1.2h1.7C2,40.5,2.3,40.3,2.3,39.9z"/>
			<path class="st1" d="M7.2,40.5h8.3c0.3,0,0.6-0.3,0.6-0.6c0-0.3-0.2-0.6-0.6-0.6H7.2c-0.3,0-0.6,0.3-0.6,0.6
				C6.7,40.3,6.9,40.5,7.2,40.5z"/>
			<path class="st1" d="M4.5,39.3c-0.1,0-0.1,0-0.2,0c-0.1,0-0.1,0.1-0.2,0.1c-0.1,0.1-0.2,0.3-0.2,0.4s0.1,0.3,0.2,0.4
				c0.1,0.1,0.1,0.1,0.2,0.1c0.2,0.1,0.4,0,0.6-0.1C5,40.2,5,40.1,5,39.9c0-0.2-0.1-0.3-0.2-0.4C4.8,39.4,4.6,39.3,4.5,39.3z"/>
			<path class="st1" d="M7.8,36.2c0-0.3-0.2-0.6-0.6-0.6H0v1.2h7.2C7.6,36.8,7.8,36.5,7.8,36.2z"/>
			<path class="st1" d="M18.1,40.5c0,0,0.1,0,0.1,0c0.2,0,0.4,0,0.5-0.2c0,0,0-0.1,0.1-0.1c0,0,0-0.1,0-0.1c0,0,0-0.1,0-0.1
				c0,0,0-0.1,0-0.1c0,0,0-0.1,0-0.1c0,0,0-0.1,0-0.1c0,0,0-0.1,0-0.1c0,0,0-0.1-0.1-0.1c0,0-0.1,0-0.1-0.1c0,0-0.1,0-0.1-0.1
				c0,0-0.1,0-0.1,0c0,0-0.1,0-0.1,0c0,0-0.1,0-0.1,0c0,0-0.1,0-0.1,0c0,0-0.1,0-0.1,0.1c0,0-0.1,0-0.1,0.1
				c-0.1,0.1-0.2,0.3-0.2,0.4c0,0.2,0.1,0.3,0.2,0.4l0.1,0.1C18,40.4,18.1,40.5,18.1,40.5z"/>
			<path class="st1" d="M18.3,46.8H10c-0.3,0-0.6,0.3-0.6,0.6c0,0.3,0.2,0.6,0.6,0.6h8.3c0.3,0,0.6-0.3,0.6-0.6
				C18.9,47,18.6,46.8,18.3,46.8z"/>
			<path class="st1" d="M18.3,43h-5.5c-0.3,0-0.6,0.3-0.6,0.6c0,0.3,0.2,0.6,0.6,0.6h5.5c0.3,0,0.6-0.3,0.6-0.6
				C18.9,43.3,18.6,43,18.3,43z"/>
			<path class="st1" d="M8.4,43H7.2c-0.3,0-0.6,0.3-0.6,0.6c0,0.3,0.2,0.6,0.6,0.6h1.1c0.3,0,0.6-0.3,0.6-0.6
				C8.9,43.3,8.7,43,8.4,43z"/>
			<path class="st1" d="M8.2,46.9C8.2,46.9,8.1,46.9,8.2,46.9C8.1,46.8,8,46.8,8,46.8c0,0-0.1,0-0.1,0c0,0-0.1,0-0.1,0
				c-0.1,0-0.3,0.1-0.4,0.2c0,0.1-0.1,0.1-0.1,0.2s0,0.2,0,0.2c0,0.1,0,0.2,0,0.2c0,0.1,0.1,0.1,0.1,0.2C7.5,48,7.7,48,7.9,48
				c0,0,0.1,0,0.1,0c0,0,0.1,0,0.1-0.1c0,0,0.1,0,0.1-0.1c0.1-0.1,0.1-0.1,0.1-0.2c0-0.1,0-0.2,0-0.2c0-0.1,0-0.2,0-0.2
				S8.2,47,8.2,46.9z"/>
			<path class="st1" d="M11,43.3C11,43.3,11,43.2,11,43.3c-0.2-0.2-0.3-0.3-0.5-0.3c-0.1,0-0.3,0.1-0.4,0.2
				c-0.1,0.1-0.2,0.3-0.2,0.4c0,0.2,0.1,0.3,0.2,0.4c0.2,0.2,0.6,0.2,0.8,0c0.1-0.1,0.2-0.3,0.2-0.4c0,0,0-0.1,0-0.1
				c0,0,0-0.1,0-0.1C11.1,43.4,11,43.3,11,43.3z"/>
			<path class="st1" d="M47.2,36.2c0,0.3,0.2,0.6,0.6,0.6H48v-1.2h-0.2C47.5,35.5,47.2,35.8,47.2,36.2z"/>
			<path class="st1" d="M40.1,39.9c0-0.3-0.2-0.6-0.6-0.6H34c-0.3,0-0.6,0.3-0.6,0.6c0,0.3,0.2,0.6,0.6,0.6h5.5
				C39.8,40.5,40.1,40.2,40.1,39.9z"/>
			<path class="st1" d="M42.1,39.3c-0.1,0-0.1,0.1-0.2,0.1c-0.1,0.1-0.2,0.3-0.2,0.4c0,0.2,0.1,0.3,0.2,0.4c0.1,0.1,0.1,0.1,0.2,0.1
				c0.2,0.1,0.4,0,0.6-0.1c0.1-0.1,0.2-0.3,0.2-0.4c0-0.2-0.1-0.3-0.2-0.4c-0.1-0.1-0.2-0.2-0.4-0.2C42.2,39.3,42.1,39.3,42.1,39.3z
				"/>
			<path class="st1" d="M36.2,36.2c0,0.3,0.2,0.6,0.6,0.6H45c0.3,0,0.6-0.3,0.6-0.6c0-0.3-0.2-0.6-0.6-0.6h-8.3
				C36.4,35.5,36.2,35.8,36.2,36.2z"/>
			<path class="st1" d="M34.2,35.6c0,0-0.1,0-0.1,0c0,0-0.1,0-0.1,0c-0.1,0-0.1,0-0.2,0s-0.1,0.1-0.2,0.1c-0.1,0.1-0.2,0.3-0.2,0.4
				c0,0.1,0,0.2,0,0.2c0,0.1,0.1,0.1,0.1,0.2c0.1,0.1,0.3,0.2,0.5,0.2c0,0,0.1,0,0.1,0c0,0,0.1,0,0.1-0.1c0,0,0.1,0,0.1-0.1
				c0-0.1,0.1-0.1,0.1-0.2c0-0.1,0-0.2,0-0.2c0-0.2-0.1-0.3-0.2-0.4C34.3,35.7,34.3,35.7,34.2,35.6C34.3,35.6,34.2,35.6,34.2,35.6z"
				/>
			<path class="st1" d="M47.8,46.8c-0.3,0-0.6,0.3-0.6,0.6c0,0.3,0.2,0.6,0.6,0.6H48v-1.2H47.8z"/>
			<path class="st1" d="M46.1,43H45c-0.3,0-0.6,0.3-0.6,0.6c0,0.3,0.2,0.6,0.6,0.6h1.1c0.3,0,0.6-0.3,0.6-0.6
				C46.7,43.3,46.4,43,46.1,43z"/>
			<path class="st1" d="M46,46.9C46,46.9,45.9,46.9,46,46.9c-0.1-0.1-0.1-0.1-0.2-0.1c0,0-0.1,0-0.1,0c0,0-0.1,0-0.1,0
				c-0.1,0-0.3,0.1-0.4,0.2c0,0.1-0.1,0.1-0.1,0.2c0,0.1,0,0.2,0,0.2c0,0.1,0,0.2,0,0.2c0,0.1,0.1,0.1,0.1,0.2
				c0.1,0.1,0.3,0.2,0.5,0.2c0,0,0.1,0,0.1,0c0,0,0.1,0,0.1-0.1c0,0,0.1,0,0.1-0.1c0.1-0.1,0.1-0.1,0.1-0.2c0-0.1,0-0.2,0-0.2
				c0-0.1,0-0.2,0-0.2C46.1,47.1,46,47,46,46.9z"/>
			<path class="st1" d="M47.8,43.6c0,0.2,0.1,0.3,0.2,0.4c0,0,0,0,0,0v-0.9c0,0,0,0,0,0C47.9,43.3,47.8,43.5,47.8,43.6z"/>
			<path class="st1" d="M42.9,46.8h-5.5c-0.3,0-0.6,0.3-0.6,0.6c0,0.3,0.2,0.6,0.6,0.6h5.5c0.3,0,0.6-0.3,0.6-0.6
				C43.5,47,43.2,46.8,42.9,46.8z"/>
			<path class="st1" d="M31.9,46.8h-8.3c-0.3,0-0.6,0.3-0.6,0.6c0,0.3,0.2,0.6,0.6,0.6h8.3c0.3,0,0.6-0.3,0.6-0.6
				C32.4,47,32.2,46.8,31.9,46.8z"/>
			<path class="st1" d="M34.8,46.8c-0.2-0.1-0.4,0-0.6,0.1c-0.1,0.1-0.2,0.3-0.2,0.4c0,0.2,0.1,0.3,0.2,0.4c0.1,0.1,0.2,0.2,0.4,0.2
				c0.1,0,0.1,0,0.2,0c0.1,0,0.1-0.1,0.2-0.1c0.1-0.1,0.2-0.3,0.2-0.4c0-0.2-0.1-0.3-0.2-0.4C35,46.9,34.9,46.8,34.8,46.8z"/>
			<path class="st1" d="M21.1,46.9c0,0-0.1,0-0.1-0.1c0,0-0.1,0-0.1,0c-0.2,0-0.4,0-0.5,0.2c0,0,0,0.1-0.1,0.1c0,0,0,0.1,0,0.1
				c0,0,0,0.1,0,0.1c0,0,0,0.1,0,0.1c0,0,0,0.1,0,0.1c0,0,0,0.1,0,0.1c0,0,0,0.1,0,0.1c0,0,0,0.1,0.1,0.1c0,0,0.1,0,0.1,0.1
				c0,0,0.1,0,0.1,0.1c0,0,0.1,0,0.1,0c0,0,0.1,0,0.1,0c0,0,0.1,0,0.1,0c0,0,0.1,0,0.1,0c0,0,0.1,0,0.1-0.1c0,0,0.1,0,0.1-0.1
				c0.1-0.1,0.2-0.3,0.2-0.4C21.4,47.2,21.3,47,21.1,46.9L21.1,46.9z"/>
			<path class="st1" d="M29.6,39.9c0-0.3-0.2-0.6-0.6-0.6h-8.3c-0.3,0-0.6,0.3-0.6,0.6c0,0.3,0.2,0.6,0.6,0.6h8.3
				C29.4,40.5,29.6,40.2,29.6,39.9z"/>
			<path class="st1" d="M20.8,44.3h5.5c0.3,0,0.6-0.3,0.6-0.6c0-0.3-0.2-0.6-0.6-0.6h-5.5c-0.3,0-0.6,0.3-0.6,0.6
				C20.2,44,20.5,44.3,20.8,44.3z"/>
			<path class="st1" d="M31.9,43h-1.1c-0.3,0-0.6,0.3-0.6,0.6c0,0.3,0.2,0.6,0.6,0.6h1.1c0.3,0,0.6-0.3,0.6-0.6
				C32.4,43.3,32.2,43,31.9,43z"/>
			<path class="st1" d="M31.9,35.5h-8.3c-0.3,0-0.6,0.3-0.6,0.6c0,0.3,0.2,0.6,0.6,0.6h8.3c0.3,0,0.6-0.3,0.6-0.6
				C32.4,35.8,32.2,35.5,31.9,35.5z"/>
			<path class="st1" d="M21.1,35.7c0,0-0.1,0-0.1-0.1c0,0-0.1,0-0.1,0c-0.2,0-0.4,0-0.5,0.2c0,0,0,0.1-0.1,0.1c0,0,0,0.1,0,0.1
				c0,0,0,0.1,0,0.1c0,0,0,0.1,0,0.1c0,0,0,0.1,0,0.1c0,0,0,0.1,0,0.1c0,0,0,0.1,0,0.1c0,0,0,0.1,0.1,0.1c0,0,0.1,0,0.1,0.1
				c0,0,0.1,0,0.1,0.1c0,0,0.1,0,0.1,0c0,0,0.1,0,0.1,0c0,0,0.1,0,0.1,0c0,0,0.1,0,0.1,0c0,0,0.1,0,0.1-0.1c0,0,0.1,0,0.1-0.1
				c0.1-0.1,0.2-0.3,0.2-0.4C21.4,36,21.3,35.8,21.1,35.7L21.1,35.7z"/>
			<path class="st1" d="M31,40.4C31,40.4,31.1,40.5,31,40.4c0.1,0.1,0.2,0.1,0.2,0.1c0,0,0.1,0,0.1,0c0.1,0,0.3-0.1,0.4-0.2
				c0-0.1,0.1-0.1,0.1-0.2c0-0.1,0-0.2,0-0.2c0-0.1,0-0.2,0-0.2c0-0.1-0.1-0.1-0.1-0.2c-0.1-0.1-0.3-0.2-0.5-0.2c0,0-0.1,0-0.1,0
				c0,0-0.1,0-0.1,0.1c0,0-0.1,0-0.1,0.1c-0.1,0.1-0.1,0.1-0.1,0.2c0,0.1,0,0.2,0,0.2c0,0.1,0,0.2,0,0.2
				C30.8,40.2,30.9,40.3,31,40.4C30.9,40.4,31,40.4,31,40.4z"/>
			<path class="st1" d="M28.1,43.2C28,43.3,28,43.5,28,43.6c0,0,0,0.1,0,0.1c0,0,0,0.1,0,0.1c0,0,0,0.1,0,0.1c0,0,0,0.1,0.1,0.1
				c0.1,0.1,0.2,0.2,0.4,0.2c0.1,0,0.3-0.1,0.4-0.2c0.1-0.1,0.2-0.3,0.2-0.4c0-0.2-0.1-0.3-0.2-0.4C28.7,43,28.4,43,28.1,43.2z"/>
			<path class="st1" d="M18.5,18.7c0,0.3,0.2,0.6,0.6,0.6h8.3c0.3,0,0.6-0.3,0.6-0.6c0-0.3-0.2-0.6-0.6-0.6H19
				C18.7,18,18.5,18.3,18.5,18.7z"/>
			<path class="st1" d="M11.3,22.4c0-0.3-0.2-0.6-0.6-0.6H5.2c-0.3,0-0.6,0.3-0.6,0.6c0,0.3,0.2,0.6,0.6,0.6h5.5
				C11,23,11.3,22.7,11.3,22.4z"/>
			<path class="st1" d="M25.1,22.4c0-0.3-0.2-0.6-0.6-0.6h-8.3c-0.3,0-0.6,0.3-0.6,0.6c0,0.3,0.2,0.6,0.6,0.6h8.3
				C24.8,23,25.1,22.7,25.1,22.4z"/>
			<path class="st1" d="M13.9,22.8c0.1-0.1,0.2-0.3,0.2-0.4c0-0.2-0.1-0.3-0.2-0.4c-0.1-0.1-0.2-0.2-0.4-0.2c-0.1,0-0.1,0-0.2,0
				c-0.1,0-0.1,0.1-0.2,0.1c-0.1,0.1-0.2,0.3-0.2,0.4c0,0.2,0.1,0.3,0.2,0.4c0.1,0.1,0.1,0.1,0.2,0.1C13.5,23.1,13.7,23,13.9,22.8z"
				/>
			<path class="st1" d="M16.8,18.7c0-0.3-0.2-0.6-0.6-0.6H8c-0.3,0-0.6,0.3-0.6,0.6c0,0.3,0.2,0.6,0.6,0.6h8.3
				C16.6,19.3,16.8,19,16.8,18.7z"/>
			<path class="st1" d="M5.3,19.3c0,0,0.1,0,0.1,0c0,0,0.1,0,0.1-0.1c0,0,0.1,0,0.1-0.1c0-0.1,0.1-0.1,0.1-0.2c0-0.1,0-0.2,0-0.2
				c0-0.2-0.1-0.3-0.2-0.4c0,0-0.1,0-0.1-0.1c0,0-0.1,0-0.1-0.1c0,0-0.1,0-0.1,0c0,0-0.1,0-0.1,0c-0.1,0-0.1,0-0.2,0
				c-0.1,0-0.1,0.1-0.2,0.1c-0.1,0.1-0.2,0.3-0.2,0.4c0,0.1,0,0.2,0,0.2c0,0.1,0.1,0.1,0.1,0.2C4.9,19.2,5.1,19.3,5.3,19.3z"/>
			<path class="st1" d="M27.1,23c0,0,0.1,0,0.1,0c0.2,0,0.4,0,0.5-0.2c0,0,0-0.1,0.1-0.1c0,0,0-0.1,0-0.1c0,0,0-0.1,0-0.1
				c0,0,0-0.1,0-0.1c0,0,0-0.1,0-0.1c0,0,0-0.1,0-0.1c0,0,0-0.1,0-0.1c0,0,0-0.1-0.1-0.1c0,0-0.1,0-0.1-0.1c0,0-0.1,0-0.1-0.1
				c0,0-0.1,0-0.1,0c0,0-0.1,0-0.1,0c0,0-0.1,0-0.1,0c0,0-0.1,0-0.1,0c0,0-0.1,0-0.1,0.1c0,0-0.1,0-0.1,0.1
				c-0.1,0.1-0.2,0.3-0.2,0.4c0,0.2,0.1,0.3,0.2,0.4l0.1,0.1C27,22.9,27.1,23,27.1,23z"/>
			<path class="st1" d="M27.3,29.2H19c-0.3,0-0.6,0.3-0.6,0.6c0,0.3,0.2,0.6,0.6,0.6h8.3c0.3,0,0.6-0.3,0.6-0.6
				C27.9,29.5,27.6,29.2,27.3,29.2z"/>
			<path class="st1" d="M27.3,25.5h-5.5c-0.3,0-0.6,0.3-0.6,0.6c0,0.3,0.2,0.6,0.6,0.6h5.5c0.3,0,0.6-0.3,0.6-0.6
				C27.9,25.8,27.6,25.5,27.3,25.5z"/>
			<path class="st1" d="M17.9,26.1c0-0.3-0.2-0.6-0.6-0.6h-1.1c-0.3,0-0.6,0.3-0.6,0.6c0,0.3,0.2,0.6,0.6,0.6h1.1
				C17.7,26.8,17.9,26.5,17.9,26.1z"/>
			<path class="st1" d="M25.1,33.6c0-0.3-0.2-0.6-0.6-0.6h-8.3c-0.3,0-0.6,0.3-0.6,0.6c0,0.3,0.2,0.6,0.6,0.6h8.3
				C24.8,34.2,25.1,33.9,25.1,33.6z"/>
			<path class="st1" d="M27.8,33.3C27.7,33.2,27.7,33.2,27.8,33.3c-0.1-0.1-0.1-0.1-0.1-0.2c0,0-0.1,0-0.1-0.1c0,0-0.1,0-0.1,0
				c0,0-0.1,0-0.1,0c0,0-0.1,0-0.1,0c0,0-0.1,0-0.1,0c0,0-0.1,0-0.1,0.1c0,0-0.1,0-0.1,0.1c-0.1,0.1-0.2,0.3-0.2,0.4
				c0,0.2,0.1,0.3,0.2,0.4l0.1,0.1c0,0,0.1,0,0.1,0.1c0,0,0.1,0,0.1,0c0.2,0,0.4,0,0.5-0.2c0,0,0-0.1,0.1-0.1c0,0,0-0.1,0-0.1
				c0,0,0-0.1,0-0.1c0,0,0-0.1,0-0.1s0-0.1,0-0.1c0,0,0-0.1,0-0.1C27.8,33.3,27.8,33.3,27.8,33.3z"/>
			<path class="st1" d="M17.1,29.4C17.1,29.3,17,29.3,17.1,29.4c-0.1-0.1-0.2-0.1-0.2-0.1c0,0-0.1,0-0.1,0c-0.1,0-0.3,0.1-0.4,0.2
				c0,0.1-0.1,0.1-0.1,0.2c0,0.1,0,0.2,0,0.2c0,0.1,0,0.2,0,0.2c0,0.1,0.1,0.1,0.1,0.2c0.1,0.1,0.3,0.2,0.5,0.2c0,0,0.1,0,0.1,0
				c0,0,0.1,0,0.1-0.1c0,0,0.1,0,0.1-0.1c0.1-0.1,0.1-0.1,0.1-0.2c0-0.1,0-0.2,0-0.2c0-0.1,0-0.2,0-0.2
				C17.3,29.6,17.2,29.5,17.1,29.4C17.2,29.4,17.1,29.4,17.1,29.4z"/>
			<path class="st1" d="M20,25.8C20,25.8,20,25.7,20,25.8c-0.2-0.2-0.3-0.3-0.5-0.3c-0.1,0-0.3,0.1-0.4,0.2C19.1,25.8,19,26,19,26.1
				c0,0.2,0.1,0.3,0.2,0.4c0.2,0.2,0.6,0.2,0.8,0c0.1-0.1,0.2-0.3,0.2-0.4c0,0,0-0.1,0-0.1c0,0,0-0.1,0-0.1
				C20.1,25.9,20,25.8,20,25.8z"/>
			<path class="st1" d="M0.9,33.6c0-0.3-0.2-0.6-0.6-0.6H0v1.2h0.3C0.6,34.2,0.9,33.9,0.9,33.6z"/>
			<path class="st1" d="M14.1,29.2H8.6c-0.3,0-0.6,0.3-0.6,0.6c0,0.3,0.2,0.6,0.6,0.6h5.5c0.3,0,0.6-0.3,0.6-0.6
				C14.7,29.5,14.4,29.2,14.1,29.2z"/>
			<path class="st1" d="M3.6,29.9c0-0.3-0.2-0.6-0.6-0.6H0v1.2h3.1C3.4,30.5,3.6,30.2,3.6,29.9z"/>
			<path class="st1" d="M5.4,29.4c-0.1,0.1-0.2,0.3-0.2,0.4c0,0.2,0.1,0.3,0.2,0.4c0.1,0.1,0.2,0.2,0.4,0.2c0.1,0,0.1,0,0.2,0
				c0.1,0,0.1-0.1,0.2-0.1c0.1-0.1,0.2-0.3,0.2-0.4c0-0.2-0.1-0.3-0.2-0.4c-0.1-0.1-0.1-0.1-0.2-0.1C5.8,29.2,5.6,29.3,5.4,29.4z"/>
			<path class="st1" d="M14,33c0,0-0.1,0-0.1,0c0,0-0.1,0-0.1,0.1c0,0-0.1,0-0.1,0.1c0,0.1-0.1,0.1-0.1,0.2c0,0.1,0,0.2,0,0.2
				c0,0.2,0.1,0.3,0.2,0.4c0,0,0.1,0,0.1,0.1c0,0,0.1,0,0.1,0.1c0,0,0.1,0,0.1,0c0,0,0.1,0,0.1,0c0.1,0,0.1,0,0.2,0s0.1-0.1,0.2-0.1
				c0.1-0.1,0.2-0.3,0.2-0.4c0-0.1,0-0.2,0-0.2c0-0.1-0.1-0.1-0.1-0.2C14.4,33,14.2,33,14,33z"/>
			<path class="st1" d="M0.9,22.4c0-0.3-0.2-0.6-0.6-0.6H0V23h0.3C0.6,23,0.9,22.7,0.9,22.4z"/>
			<path class="st1" d="M3.1,25.5H2c-0.3,0-0.6,0.3-0.6,0.6c0,0.3,0.2,0.6,0.6,0.6h1.1c0.3,0,0.6-0.3,0.6-0.6
				C3.6,25.8,3.4,25.5,3.1,25.5z"/>
			<path class="st1" d="M3.6,18.7c0-0.3-0.2-0.6-0.6-0.6H0v1.2h3.1C3.4,19.3,3.6,19,3.6,18.7z"/>
			<path class="st1" d="M2.1,22.8C2.2,22.9,2.2,22.9,2.1,22.8C2.2,22.9,2.3,23,2.3,23c0,0,0.1,0,0.1,0c0,0,0.1,0,0.1,0
				c0.1,0,0.3-0.1,0.4-0.2C3,22.8,3,22.7,3,22.6c0-0.1,0-0.2,0-0.2c0-0.1,0-0.2,0-0.2C3,22.1,3,22,2.9,22c-0.1-0.1-0.3-0.2-0.5-0.2
				c0,0-0.1,0-0.1,0c0,0-0.1,0-0.1,0.1c0,0-0.1,0-0.1,0.1C2.1,22,2,22.1,2,22.2c0,0.1,0,0.2,0,0.2c0,0.1,0,0.2,0,0.2
				C2,22.7,2.1,22.8,2.1,22.8z"/>
			<path class="st1" d="M0.3,26.1c0-0.2-0.1-0.3-0.2-0.4c0,0-0.1-0.1-0.1-0.1v1.1c0.1,0,0.1-0.1,0.1-0.1C0.2,26.5,0.3,26.3,0.3,26.1
				z"/>
			<path class="st1" d="M42.4,22.4c0,0.3,0.2,0.6,0.6,0.6h5v-1.2h-5C42.7,21.8,42.4,22.1,42.4,22.4z"/>
			<path class="st1" d="M45.2,18.7c0,0.3,0.2,0.6,0.6,0.6H48V18h-2.3C45.4,18,45.2,18.3,45.2,18.7z"/>
			<path class="st1" d="M42.6,19.1c0.1,0.1,0.3,0.2,0.5,0.2c0,0,0.1,0,0.1,0c0,0,0.1,0,0.1-0.1c0,0,0.1,0,0.1-0.1
				c0-0.1,0.1-0.1,0.1-0.2c0-0.1,0-0.2,0-0.2c0-0.2-0.1-0.3-0.2-0.4c0,0-0.1,0-0.1-0.1c0,0-0.1,0-0.1-0.1c0,0-0.1,0-0.1,0
				c0,0-0.1,0-0.1,0c-0.1,0-0.1,0-0.2,0c-0.1,0-0.1,0.1-0.2,0.1c-0.1,0.1-0.2,0.3-0.2,0.4c0,0.1,0,0.2,0,0.2
				C42.5,19,42.5,19,42.6,19.1z"/>
			<path class="st1" d="M38.6,33.6c0-0.3-0.2-0.6-0.6-0.6h-8.3c-0.3,0-0.6,0.3-0.6,0.6c0,0.3,0.2,0.6,0.6,0.6h8.3
				C38.4,34.2,38.6,33.9,38.6,33.6z"/>
			<path class="st1" d="M45.8,29.9c0,0.3,0.2,0.6,0.6,0.6H48v-1.2h-1.6C46.1,29.2,45.8,29.5,45.8,29.9z"/>
			<path class="st1" d="M43.6,30.5c0.1,0,0.1,0,0.2,0c0.1,0,0.1-0.1,0.2-0.1c0.1-0.1,0.2-0.3,0.2-0.4c0-0.2-0.1-0.3-0.2-0.4
				c-0.1-0.1-0.1-0.1-0.2-0.1c-0.2-0.1-0.4,0-0.6,0.1c-0.1,0.1-0.2,0.3-0.2,0.4c0,0.2,0.1,0.3,0.2,0.4
				C43.3,30.4,43.5,30.5,43.6,30.5z"/>
			<path class="st1" d="M40.3,33.6c0,0.3,0.2,0.6,0.6,0.6H48V33h-7.1C40.6,33,40.3,33.3,40.3,33.6z"/>
			<path class="st1" d="M30,29.3c0,0-0.1,0-0.1,0c-0.2,0-0.4,0-0.5,0.2c0,0,0,0.1-0.1,0.1c0,0,0,0.1,0,0.1c0,0,0,0.1,0,0.1
				c0,0,0,0.1,0,0.1c0,0,0,0.1,0,0.1c0,0,0,0.1,0,0.1c0,0,0,0.1,0,0.1c0,0,0,0.1,0.1,0.1c0,0,0.1,0,0.1,0.1c0,0,0.1,0,0.1,0.1
				c0,0,0.1,0,0.1,0c0,0,0.1,0,0.1,0c0,0,0.1,0,0.1,0c0,0,0.1,0,0.1,0c0,0,0.1,0,0.1-0.1c0,0,0.1,0,0.1-0.1c0.1-0.1,0.2-0.3,0.2-0.4
				c0-0.2-0.1-0.3-0.2-0.4l-0.1-0.1C30.1,29.3,30,29.3,30,29.3z"/>
			<path class="st1" d="M29.8,23h8.3c0.3,0,0.6-0.3,0.6-0.6c0-0.3-0.2-0.6-0.6-0.6h-8.3c-0.3,0-0.6,0.3-0.6,0.6
				C29.2,22.7,29.5,23,29.8,23z"/>
			<path class="st1" d="M29.8,26.8h5.5c0.3,0,0.6-0.3,0.6-0.6c0-0.3-0.2-0.6-0.6-0.6h-5.5c-0.3,0-0.6,0.3-0.6,0.6
				C29.2,26.5,29.5,26.8,29.8,26.8z"/>
			<path class="st1" d="M40.9,25.5h-1.1c-0.3,0-0.6,0.3-0.6,0.6c0,0.3,0.2,0.6,0.6,0.6h1.1c0.3,0,0.6-0.3,0.6-0.6
				C41.4,25.8,41.2,25.5,40.9,25.5z"/>
			<path class="st1" d="M32,18.7c0,0.3,0.2,0.6,0.6,0.6h8.3c0.3,0,0.6-0.3,0.6-0.6c0-0.3-0.2-0.6-0.6-0.6h-8.3
				C32.3,18,32,18.3,32,18.7z"/>
			<path class="st1" d="M29.3,19C29.4,19,29.4,19.1,29.3,19c0.1,0.1,0.1,0.1,0.1,0.2c0,0,0.1,0,0.1,0.1c0,0,0.1,0,0.1,0
				c0,0,0.1,0,0.1,0c0,0,0.1,0,0.1,0c0,0,0.1,0,0.1,0c0,0,0.1,0,0.1-0.1c0,0,0.1,0,0.1-0.1c0.1-0.1,0.2-0.3,0.2-0.4
				c0-0.2-0.1-0.3-0.2-0.4l-0.1-0.1c0,0-0.1,0-0.1-0.1c0,0-0.1,0-0.1,0c-0.2,0-0.4,0-0.5,0.2c0,0,0,0.1-0.1,0.1c0,0,0,0.1,0,0.1
				c0,0,0,0.1,0,0.1c0,0,0,0.1,0,0.1c0,0,0,0.1,0,0.1c0,0,0,0.1,0,0.1C29.3,18.9,29.3,19,29.3,19z"/>
			<path class="st1" d="M40,22.9C40,22.9,40.1,23,40,22.9c0.1,0.1,0.2,0.1,0.2,0.1c0,0,0.1,0,0.1,0c0.1,0,0.3-0.1,0.4-0.2
				c0-0.1,0.1-0.1,0.1-0.2c0-0.1,0-0.2,0-0.2c0-0.1,0-0.2,0-0.2c0-0.1-0.1-0.1-0.1-0.2c-0.1-0.1-0.3-0.2-0.5-0.2c0,0-0.1,0-0.1,0
				c0,0-0.1,0-0.1,0.1c0,0-0.1,0-0.1,0.1c-0.1,0.1-0.1,0.1-0.1,0.2c0,0.1,0,0.2,0,0.2s0,0.2,0,0.2C39.8,22.7,39.9,22.8,40,22.9
				C39.9,22.9,40,22.9,40,22.9z"/>
			<path class="st1" d="M37.1,25.7C37,25.8,37,26,37,26.1c0,0,0,0.1,0,0.1c0,0,0,0.1,0,0.1c0,0,0,0.1,0,0.1c0,0,0,0.1,0.1,0.1
				c0.1,0.1,0.2,0.2,0.4,0.2c0.1,0,0.3-0.1,0.4-0.2c0.1-0.1,0.2-0.3,0.2-0.4c0-0.2-0.1-0.3-0.2-0.4C37.7,25.5,37.4,25.5,37.1,25.7z"
				/>
			<path class="st1" d="M17.8,0.9h8.3c0.3,0,0.6-0.3,0.6-0.6c0-0.1,0-0.2-0.1-0.3h-9.2c-0.1,0.1-0.1,0.2-0.1,0.3
				C17.2,0.7,17.5,0.9,17.8,0.9z"/>
			<path class="st1" d="M3.9,4.7h5.5c0.3,0,0.6-0.3,0.6-0.6c0-0.3-0.2-0.6-0.6-0.6H3.9c-0.3,0-0.6,0.3-0.6,0.6
				C3.4,4.4,3.6,4.7,3.9,4.7z"/>
			<path class="st1" d="M15,4.7h8.3c0.3,0,0.6-0.3,0.6-0.6c0-0.3-0.2-0.6-0.6-0.6H15c-0.3,0-0.6,0.3-0.6,0.6
				C14.4,4.4,14.7,4.7,15,4.7z"/>
			<path class="st1" d="M12,4.6c0.2,0.1,0.4,0,0.6-0.1c0.1-0.1,0.2-0.3,0.2-0.4c0-0.2-0.1-0.3-0.2-0.4c-0.1-0.1-0.2-0.2-0.4-0.2
				c-0.1,0-0.1,0-0.2,0c-0.1,0-0.1,0.1-0.2,0.1c-0.1,0.1-0.2,0.3-0.2,0.4c0,0.2,0.1,0.3,0.2,0.4C11.9,4.6,12,4.6,12,4.6z"/>
			<path class="st1" d="M6.7,0.9H15c0.3,0,0.6-0.3,0.6-0.6c0-0.1,0-0.2-0.1-0.3H6.2C6.2,0.1,6.2,0.2,6.2,0.3
				C6.2,0.7,6.4,0.9,6.7,0.9z"/>
			<path class="st1" d="M3.4,0.6c0,0.1,0.1,0.1,0.1,0.2C3.7,0.9,3.9,1,4,0.9c0,0,0.1,0,0.1,0c0,0,0.1,0,0.1-0.1c0,0,0.1,0,0.1-0.1
				c0-0.1,0.1-0.1,0.1-0.2c0-0.1,0-0.2,0-0.2c0-0.1,0-0.2-0.1-0.3H3.5C3.4,0.1,3.4,0.2,3.4,0.3C3.4,0.4,3.4,0.5,3.4,0.6z"/>
			<path class="st1" d="M25.8,4.6c0,0,0.1,0,0.1,0.1c0,0,0.1,0,0.1,0c0.2,0,0.4,0,0.5-0.2c0,0,0-0.1,0.1-0.1c0,0,0-0.1,0-0.1
				c0,0,0-0.1,0-0.1c0,0,0-0.1,0-0.1c0,0,0-0.1,0-0.1c0,0,0-0.1,0-0.1c0,0,0-0.1,0-0.1c0,0,0-0.1-0.1-0.1c0,0-0.1,0-0.1-0.1
				c0,0-0.1,0-0.1-0.1c0,0-0.1,0-0.1,0c0,0-0.1,0-0.1,0c0,0-0.1,0-0.1,0c0,0-0.1,0-0.1,0c0,0-0.1,0-0.1,0.1c0,0-0.1,0-0.1,0.1
				c-0.1,0.1-0.2,0.3-0.2,0.4C25.5,4.2,25.6,4.4,25.8,4.6L25.8,4.6z"/>
			<path class="st1" d="M17.2,11.5c0,0.3,0.2,0.6,0.6,0.6h8.3c0.3,0,0.6-0.3,0.6-0.6c0-0.3-0.2-0.6-0.6-0.6h-8.3
				C17.5,10.9,17.2,11.2,17.2,11.5z"/>
			<path class="st1" d="M26.1,7.2h-5.5c-0.3,0-0.6,0.3-0.6,0.6c0,0.3,0.2,0.6,0.6,0.6h5.5c0.3,0,0.6-0.3,0.6-0.6
				C26.6,7.5,26.4,7.2,26.1,7.2z"/>
			<path class="st1" d="M15,8.4h1.1c0.3,0,0.6-0.3,0.6-0.6c0-0.3-0.2-0.6-0.6-0.6H15c-0.3,0-0.6,0.3-0.6,0.6
				C14.4,8.1,14.7,8.4,15,8.4z"/>
			<path class="st1" d="M15,15.9h8.3c0.3,0,0.6-0.3,0.6-0.6c0-0.3-0.2-0.6-0.6-0.6H15c-0.3,0-0.6,0.3-0.6,0.6
				C14.4,15.6,14.7,15.9,15,15.9z"/>
			<path class="st1" d="M25.8,15.8c0,0,0.1,0,0.1,0.1c0,0,0.1,0,0.1,0c0.2,0,0.4,0,0.5-0.2c0,0,0-0.1,0.1-0.1c0,0,0-0.1,0-0.1
				c0,0,0-0.1,0-0.1c0,0,0-0.1,0-0.1c0,0,0-0.1,0-0.1c0,0,0-0.1,0-0.1c0,0,0-0.1,0-0.1c0,0,0-0.1-0.1-0.1c0,0-0.1,0-0.1-0.1
				c0,0-0.1,0-0.1-0.1c0,0-0.1,0-0.1,0c0,0-0.1,0-0.1,0c0,0-0.1,0-0.1,0c0,0-0.1,0-0.1,0c0,0-0.1,0-0.1,0.1c0,0-0.1,0-0.1,0.1
				c-0.1,0.1-0.2,0.3-0.2,0.4C25.5,15.4,25.6,15.6,25.8,15.8L25.8,15.8z"/>
			<path class="st1" d="M15.9,11C15.8,11,15.8,11,15.9,11c-0.1-0.1-0.2-0.1-0.2-0.1c0,0-0.1,0-0.1,0c-0.1,0-0.3,0.1-0.4,0.2
				c0,0.1-0.1,0.1-0.1,0.2c0,0.1,0,0.2,0,0.2s0,0.2,0,0.2c0,0.1,0.1,0.1,0.1,0.2c0.1,0.1,0.3,0.2,0.5,0.2c0,0,0.1,0,0.1,0
				c0,0,0.1,0,0.1-0.1c0,0,0.1,0,0.1-0.1c0.1-0.1,0.1-0.1,0.1-0.2c0-0.1,0-0.2,0-0.2c0-0.1,0-0.2,0-0.2C16,11.2,16,11.2,15.9,11
				C15.9,11.1,15.9,11,15.9,11z"/>
			<path class="st1" d="M18.7,8.2c0.1-0.1,0.2-0.3,0.2-0.4c0,0,0-0.1,0-0.1c0,0,0-0.1,0-0.1c0,0,0-0.1,0-0.1c0,0,0-0.1-0.1-0.1
				c-0.1-0.1-0.2-0.2-0.4-0.2c-0.1,0-0.3,0.1-0.4,0.2c-0.1,0.1-0.2,0.3-0.2,0.4c0,0.2,0.1,0.3,0.2,0.4C18.1,8.5,18.5,8.5,18.7,8.2z"
				/>
			<path class="st1" d="M6.8,11.5c0,0.3,0.2,0.6,0.6,0.6h5.5c0.3,0,0.6-0.3,0.6-0.6c0-0.3-0.2-0.6-0.6-0.6H7.4
				C7,10.9,6.8,11.2,6.8,11.5z"/>
			<path class="st1" d="M2.4,11.5c0-0.3-0.2-0.6-0.6-0.6H0v1.2h1.8C2.1,12.2,2.4,11.9,2.4,11.5z"/>
			<path class="st1" d="M4.2,11.1C4.1,11.2,4,11.4,4,11.5c0,0.2,0.1,0.3,0.2,0.4c0.1,0.1,0.2,0.2,0.4,0.2c0.1,0,0.1,0,0.2,0
				C4.9,12.1,4.9,12,5,12c0.1-0.1,0.2-0.3,0.2-0.4c0-0.2-0.1-0.3-0.2-0.4C4.9,11,4.9,11,4.8,11C4.6,10.9,4.4,10.9,4.2,11.1z"/>
			<path class="st1" d="M12.7,15.8c0,0,0.1,0,0.1,0c0,0,0.1,0,0.1,0c0.1,0,0.1,0,0.2,0s0.1-0.1,0.2-0.1c0.1-0.1,0.2-0.3,0.2-0.4
				c0-0.1,0-0.2,0-0.2c0-0.1-0.1-0.1-0.1-0.2c-0.1-0.1-0.3-0.2-0.5-0.2c0,0-0.1,0-0.1,0c0,0-0.1,0-0.1,0.1c0,0-0.1,0-0.1,0.1
				c0,0.1-0.1,0.1-0.1,0.2c0,0.1,0,0.2,0,0.2c0,0.2,0.1,0.3,0.2,0.4C12.5,15.7,12.5,15.8,12.7,15.8C12.6,15.8,12.6,15.8,12.7,15.8z"
				/>
			<path class="st1" d="M1.8,7.2H0.7c-0.3,0-0.6,0.3-0.6,0.6c0,0.3,0.2,0.6,0.6,0.6h1.1c0.3,0,0.6-0.3,0.6-0.6
				C2.4,7.5,2.1,7.2,1.8,7.2z"/>
			<path class="st1" d="M2.4,0.3c0-0.1,0-0.2-0.1-0.3H0v0.9h1.8C2.1,0.9,2.4,0.7,2.4,0.3z"/>
			<path class="st1" d="M0.9,4.5C0.9,4.5,0.9,4.6,0.9,4.5C1,4.6,1,4.6,1.1,4.6c0,0,0.1,0,0.1,0c0,0,0.1,0,0.1,0
				c0.1,0,0.3-0.1,0.4-0.2c0-0.1,0.1-0.1,0.1-0.2c0-0.1,0-0.2,0-0.2c0-0.1,0-0.2,0-0.2c0-0.1-0.1-0.1-0.1-0.2
				C1.5,3.5,1.3,3.4,1.2,3.5c0,0-0.1,0-0.1,0c0,0-0.1,0-0.1,0.1c0,0-0.1,0-0.1,0.1C0.8,3.7,0.8,3.8,0.8,3.8c0,0.1,0,0.2,0,0.2
				s0,0.2,0,0.2C0.8,4.4,0.8,4.4,0.9,4.5z"/>
			<path class="st1" d="M41.7,4.7h5.5c0.3,0,0.6-0.3,0.6-0.6c0-0.3-0.2-0.6-0.6-0.6h-5.5c-0.3,0-0.6,0.3-0.6,0.6
				C41.2,4.4,41.4,4.7,41.7,4.7z"/>
			<path class="st1" d="M44.5,0.9H48V0h-4c-0.1,0.1-0.1,0.2-0.1,0.3C43.9,0.7,44.2,0.9,44.5,0.9z"/>
			<path class="st1" d="M41.2,0.6c0,0.1,0.1,0.1,0.1,0.2c0.1,0.1,0.3,0.2,0.5,0.2c0,0,0.1,0,0.1,0c0,0,0.1,0,0.1-0.1
				c0,0,0.1,0,0.1-0.1c0-0.1,0.1-0.1,0.1-0.2c0-0.1,0-0.2,0-0.2c0-0.1,0-0.2-0.1-0.3h-0.9c-0.1,0.1-0.1,0.2-0.1,0.3
				C41.2,0.4,41.2,0.5,41.2,0.6z"/>
			<path class="st1" d="M28.6,15.9h8.3c0.3,0,0.6-0.3,0.6-0.6c0-0.3-0.2-0.6-0.6-0.6h-8.3c-0.3,0-0.6,0.3-0.6,0.6
				C28,15.6,28.2,15.9,28.6,15.9z"/>
			<path class="st1" d="M44.6,11.5c0,0.3,0.2,0.6,0.6,0.6H48v-1.2h-2.9C44.8,10.9,44.6,11.2,44.6,11.5z"/>
			<path class="st1" d="M39.6,10.9h-8.3c-0.3,0-0.6,0.3-0.6,0.6c0,0.3,0.2,0.6,0.6,0.6h8.3c0.3,0,0.6-0.3,0.6-0.6
				C40.2,11.2,39.9,10.9,39.6,10.9z"/>
			<path class="st1" d="M42.6,11c-0.2-0.1-0.4,0-0.6,0.1c-0.1,0.1-0.2,0.3-0.2,0.4c0,0.2,0.1,0.3,0.2,0.4c0.1,0.1,0.2,0.2,0.4,0.2
				c0.1,0,0.1,0,0.2,0c0.1,0,0.1-0.1,0.2-0.1c0.1-0.1,0.2-0.3,0.2-0.4s-0.1-0.3-0.2-0.4C42.7,11,42.7,11,42.6,11z"/>
			<path class="st1" d="M28.8,11c0,0-0.1,0-0.1,0c-0.2,0-0.4,0-0.5,0.2c0,0,0,0.1-0.1,0.1c0,0,0,0.1,0,0.1c0,0,0,0.1,0,0.1
				c0,0,0,0.1,0,0.1c0,0,0,0.1,0,0.1c0,0,0,0.1,0,0.1c0,0,0,0.1,0,0.1c0,0,0,0.1,0.1,0.1c0,0,0.1,0,0.1,0.1c0,0,0.1,0,0.1,0.1
				c0,0,0.1,0,0.1,0c0,0,0.1,0,0.1,0c0,0,0.1,0,0.1,0c0,0,0.1,0,0.1,0c0,0,0.1,0,0.1-0.1c0,0,0.1,0,0.1-0.1c0.1-0.1,0.2-0.3,0.2-0.4
				c0-0.2-0.1-0.3-0.2-0.4L28.9,11C28.8,11,28.8,11,28.8,11z"/>
			<path class="st1" d="M28.6,8.4h5.5c0.3,0,0.6-0.3,0.6-0.6c0-0.3-0.2-0.6-0.6-0.6h-5.5c-0.3,0-0.6,0.3-0.6,0.6
				C28,8.1,28.2,8.4,28.6,8.4z"/>
			<path class="st1" d="M38.5,8.4h1.1c0.3,0,0.6-0.3,0.6-0.6c0-0.3-0.2-0.6-0.6-0.6h-1.1c-0.3,0-0.6,0.3-0.6,0.6
				C38,8.1,38.2,8.4,38.5,8.4z"/>
			<path class="st1" d="M31.3,0.9h8.3c0.3,0,0.6-0.3,0.6-0.6c0-0.1,0-0.2-0.1-0.3h-9.2c-0.1,0.1-0.1,0.2-0.1,0.3
				C30.8,0.7,31,0.9,31.3,0.9z"/>
			<path class="st1" d="M28,0.2c0,0,0,0.1,0,0.1c0,0,0,0.1,0,0.1c0,0,0,0.1,0,0.1c0,0,0,0.1,0,0.1c0,0,0,0.1,0.1,0.1
				c0,0,0.1,0,0.1,0.1c0,0,0.1,0,0.1,0.1c0,0,0.1,0,0.1,0c0,0,0.1,0,0.1,0c0,0,0.1,0,0.1,0c0,0,0.1,0,0.1,0c0,0,0.1,0,0.1-0.1
				c0,0,0.1,0,0.1-0.1c0.1-0.1,0.2-0.3,0.2-0.4c0-0.1,0-0.2-0.1-0.3h-0.9c0,0,0,0.1,0,0.1C28,0.1,28,0.2,28,0.2z"/>
			<path class="st1" d="M38.7,4.5C38.7,4.5,38.7,4.5,38.7,4.5c0.1,0.1,0.1,0.1,0.2,0.1c0,0,0.1,0,0.1,0c0,0,0.1,0,0.1,0
				c0.1,0,0.3-0.1,0.4-0.2c0-0.1,0.1-0.1,0.1-0.2c0-0.1,0-0.2,0-0.2c0-0.1,0-0.2,0-0.2c0-0.1-0.1-0.1-0.1-0.2
				c-0.1-0.1-0.3-0.2-0.5-0.2c0,0-0.1,0-0.1,0c0,0-0.1,0-0.1,0.1c0,0-0.1,0-0.1,0.1c-0.1,0.1-0.1,0.1-0.1,0.2c0,0.1,0,0.2,0,0.2
				c0,0.1,0,0.2,0,0.2C38.6,4.4,38.6,4.4,38.7,4.5z"/>
			<path class="st1" d="M35.8,8.1C35.9,8.2,35.9,8.2,35.8,8.1c0.2,0.2,0.3,0.3,0.5,0.3c0.1,0,0.3-0.1,0.4-0.2
				c0.1-0.1,0.2-0.3,0.2-0.4c0-0.2-0.1-0.3-0.2-0.4c-0.2-0.2-0.6-0.2-0.8,0c-0.1,0.1-0.2,0.3-0.2,0.4c0,0,0,0.1,0,0.1
				c0,0,0,0.1,0,0.1C35.8,8.1,35.8,8.1,35.8,8.1z"/>
		</g>
	</g>
	<g id="surface1">
		<path class="st2" d="M24,39l-5-6v-6h10v6L24,39z"/>
		<path class="st2" d="M35,21c0,1.1-0.9,2-2,2s-2-0.9-2-2s0.9-2,2-2S35,19.9,35,21 M17,21c0-1.1-0.9-2-2-2s-2,0.9-2,2s0.9,2,2,2
			S17,22.1,17,21"/>
		<path class="st3" d="M33,15c0-7.6-18-5-18,0v7c0,5,4,9,9,9s9-4,9-9V15z"/>
		<path class="st4" d="M20.2,26.1c-0.1-0.1,0-0.2,0.1-0.2C21,26.4,22.3,27,24,27c1.7,0,3-0.6,3.7-1.1c0.1-0.1,0.1,0.1,0.1,0.2
			c-0.5,0.7-1,2.2-3.8,2.2S20.6,26.8,20.2,26.1z"/>
		<path class="st2" d="M21,26.7h5.9c0,0-1.2,1.8-3,1.8S21,26.7,21,26.7z"/>
		<path class="st5" d="M27,21c0-0.6,0.4-1,1-1s1,0.4,1,1s-0.4,1-1,1S27,21.6,27,21 M19,21c0,0.6,0.4,1,1,1s1-0.4,1-1s-0.4-1-1-1
			S19,20.4,19,21"/>
		<path class="st6" d="M32.1,18.9c-0.2-0.2-3-0.5-5.9-0.1C25.6,18.8,25.4,19,24,19c-1.4,0-1.6-0.2-2.2-0.2c-2.9-0.3-5.7-0.1-5.9,0.1
			c-0.1,0.1-0.1,0.6,0,0.7c0.1,0.1,0.7,0.5,0.8,0.9c0.1,0.4,0.3,2.5,1,3.1c0.7,0.6,3.4,0.4,3.9,0.1c1.2-0.6,1.3-2.3,1.5-3.2
			C23.3,20,24,20,24,20s0.7,0,0.8,0.5c0.2,0.9,0.3,2.6,1.5,3.2c0.5,0.3,3.2,0.5,3.9-0.1c0.7-0.6,0.9-2.7,1-3.1
			c0.1-0.4,0.7-0.7,0.8-0.9C32.2,19.5,32.2,19,32.1,18.9z M21.6,23.2c-0.9,0.6-2.8,0.5-3.5,0c-0.7-0.5-0.8-1.9-0.9-2.6
			c0-0.6,0-0.8,0.5-1.4c0.6-0.5,4.4-0.5,4.8,0.4C22.9,20.5,22.5,22.6,21.6,23.2z M30.7,20.7c0,0.6-0.2,2.1-0.9,2.6
			c-0.7,0.5-2.6,0.6-3.5,0c-0.9-0.6-1.3-2.8-1-3.6c0.4-0.8,4.2-0.9,4.8-0.4C30.8,19.8,30.8,20.1,30.7,20.7z"/>
		<path class="st7" d="M25.3,6C19,6,14,11,14,17.3v1.9c0,0.1,0,0.1,0.1,0.2l1.5,1.3c0.2,0.1,0.4,0,0.4-0.2v-4.3
			c0-0.1,0.1-0.2,0.2-0.2L27.9,12c0.1,0,0.2,0,0.3,0.1l3.8,3.8c0,0,0.1,0.1,0.1,0.2v4.3c0,0.2,0.3,0.3,0.4,0.2l1.5-1.3
			c0.1,0,0.1-0.1,0.1-0.2V17c0-4-1-8-5.9-9C28,8,28,8,27.9,7.9l-0.9-1.8C27,6.1,26.9,6,26.8,6H25.3z"/>
		<path class="st8" d="M24,45l-5-12l5,1l5-1L24,45z"/>
		<path class="st0" d="M23,37l-0.7,4.5l1.7,4l1.7-4L25,37l1-1l-2-2l-2,2L23,37z"/>
		<path class="st9" d="M29,33l-5,12l-5-12c0,0-11,2-11,13h32C40,35,29,33,29,33"/>
	</g>
	<g class="st10">
		<path class="st11" d="M17.2,20.7c0,0.6,0.2,2.1,0.9,2.6c0.7,0.5,2.6,0.6,3.5,0c0.9-0.6,1.3-2.8,1-3.6c-0.4-0.8-4.2-0.9-4.8-0.4
			C17.1,19.8,17.1,20.1,17.2,20.7z"/>
		<path class="st11" d="M30.7,20.7c0,0.6-0.2,2.1-0.9,2.6c-0.7,0.5-2.6,0.6-3.5,0s-1.3-2.8-1-3.6c0.4-0.8,4.2-0.9,4.8-0.4
			C30.8,19.8,30.8,20.1,30.7,20.7z"/>
	</g>
</g>
<g id="Layer_2">
</g>
</svg>
